# xmcd CD database file
#
# Track frame offsets:
#	150
#	13511
#	29586
#	47268
#	67573
#	111201
#	131948
#	158635
#	178428
#	204138
#	219446
#	250824
#
# Disc length: 3569 seconds
#
# Revision: 16
# Processed by: cddbd v1.5.2PL0 Copyright (c) Steve Scherf et al.
# Submitted via: CDex 1.70beta3
#
DISCID=9c0def0c
DTITLE=U2 - War ： Deluxe-Edition 2
DYEAR=2008
DGENRE=Rock
TTITLE0=Endless Deep 
TTITLE1=Angels Too Tied To The Ground 
TTITLE2=New Year's Day [7'' Single Edit]
TTITLE3=New Year's Day [US Remix]
TTITLE4=New Year's Day [Ferry Corsten Extended Vocal Mix]
TTITLE5=New Year's Day [Ferry Corsten Vocal Radio Mix]
TTITLE6=Two Hearts Beat As One [Long Mix]
TTITLE7=Two Hearts Beat As One [US Remix]
TTITLE8=Two Hearts Beat As One [Club Version]
TTITLE9=Treasure (Whatever Happened To Pete The Chop) 
TTITLE10=I Threw A Brick Through A Window - A Day Without Me [Live]
TTITLE11=Fire [Live]
EXTD=YEAR: 2008
EXTT0=
EXTT1=
EXTT2=
EXTT3=
EXTT4=
EXTT5=
EXTT6=
EXTT7=
EXTT8=
EXTT9=
EXTT10=
EXTT11=
PLAYORDER=
